<?xml version="1.0" encoding="utf-8"?>
<!-- Generator: Adobe Illustrator 24.0.1, SVG Export Plug-In . SVG Version: 6.00 Build 0)  -->
<svg version="1.1" id="Слой_1" xmlns="http://www.w3.org/2000/svg" xmlns:xlink="http://www.w3.org/1999/xlink" x="0px" y="0px"
	 viewBox="0 0 100 95.3" style="enable-background:new 0 0 100 95.3;" xml:space="preserve">
<style type="text/css">
	.st0{fill:#FFFFFF;stroke:#FFFFFF;stroke-width:0.5669;stroke-miterlimit:10;}
</style>
<g>
	<path d="M-122.4,708v-5.9c0-1.1-0.5-2-1.3-2.7s-1.9-0.9-2.9-0.7l-42.4,9.1h-1.3v66h46.5c3,0,5.5-2.5,5.5-5.5v-55
		C-118.4,710.8-120.1,708.7-122.4,708z M-126,701.7c0.1,0,0.2-0.1,0.4,0.1c0.1,0.1,0.2,0.2,0.2,0.4v5.7h-29.3L-126,701.7z
		 M-121.4,768.3c0,1.4-1.1,2.5-2.5,2.5h-43.5v-60h43.5c1.4,0,2.5,1.1,2.5,2.5C-121.4,713.3-121.4,768.3-121.4,768.3z"/>
	<path d="M-144.4,714.8c-9.1,0-16.5,7.4-16.5,16.5s7.4,16.5,16.5,16.5s16.5-7.4,16.5-16.5S-135.3,714.8-144.4,714.8z M-136.4,729.8
		c-0.1-1.7-0.3-3.3-0.5-4.8c1.1-0.6,2.1-1.3,3.1-2.1c1.6,1.9,2.6,4.3,2.9,7h-5.5V729.8z M-144.4,744.8c-1.2,0-2.8-1.9-3.9-5.3
		c1.2-0.4,2.5-0.6,3.9-0.6c1.3,0,2.6,0.2,3.9,0.6C-141.6,742.9-143.1,744.8-144.4,744.8z M-137.7,740.8c0.6,0.3,1.1,0.7,1.7,1.2
		c-0.9,0.7-1.9,1.3-2.9,1.7C-138.5,742.8-138.1,741.9-137.7,740.8z M-149.8,743.7c-1-0.5-2-1-2.9-1.7c0.5-0.4,1.1-0.8,1.7-1.2
		C-150.6,741.9-150.2,742.8-149.8,743.7z M-144.4,735.9c-1.6,0-3.1,0.2-4.6,0.7c-0.2-1.2-0.4-2.4-0.4-3.8h9.9
		c-0.1,1.4-0.2,2.6-0.4,3.8C-141.3,736.2-142.8,735.9-144.4,735.9z M-149.3,729.8c0.1-1.3,0.2-2.5,0.4-3.7c1.5,0.4,3,0.7,4.6,0.7
		s3.1-0.2,4.6-0.7c0.2,1.1,0.3,2.4,0.4,3.7H-149.3L-149.3,729.8z M-144.4,717.8c1.2,0,2.8,2,3.9,5.4c-1.2,0.4-2.6,0.6-3.9,0.6
		c-1.3,0-2.6-0.2-3.9-0.6C-147.2,719.8-145.6,717.8-144.4,717.8z M-151,722c-0.6-0.4-1.2-0.8-1.7-1.2c0.9-0.7,1.9-1.3,3-1.8
		C-150.2,719.9-150.7,720.9-151,722z M-139,719c1.1,0.5,2.1,1.1,3,1.8c-0.5,0.5-1.1,0.9-1.7,1.2C-138.1,720.9-138.5,719.9-139,719z
		 M-152.9,720.9l-1.8,2.1c0.9,0.8,1.9,1.4,2.9,2c-0.3,1.5-0.5,3.1-0.5,4.8h-5.4C-157.4,726.3-155.6,723.1-152.9,720.9z
		 M-157.8,732.8h5.4c0.1,1.8,0.3,3.4,0.6,5c-1.1,0.6-2.1,1.3-3.1,2.1C-156.4,737.9-157.5,735.5-157.8,732.8z M-133.9,739.9
		c-0.9-0.8-2-1.5-3-2.1c0.3-1.5,0.5-3.2,0.6-4.9h5.4C-131.2,735.5-132.3,737.9-133.9,739.9z"/>
	<rect x="-160.4" y="753.8" width="32" height="3"/>
	<rect x="-152.4" y="758.8" width="16" height="3"/>
</g>
<g>
	<path class="st0" d="M88.2,91.2c-4.5-3.6-12.6-6.4-22.5-7.9c3.1-6.6,5.8-14.4,8.1-22.6c4.1-15.2,3.9-28,3.5-34.2
		c-0.3-3.7-1.5-15.8-5.9-17c-0.2-0.1-0.5-0.1-0.8-0.1c-2.9,0-7.9,4.6-12.9,12C55,12.6,51.5,6.2,48.2,4.6v28.8l11-6.3
		c-0.1-0.6-0.3-1.2-0.4-1.8c5.2-8.2,10-12.8,11.8-12.8c2.8,1.2,7,22.6,0.3,47.5c-2.3,8.5-5.1,16.4-8.3,23c-1.1-0.1-2.3-0.3-3.5-0.3
		c1.9-8.3,3.1-18.7,3.1-29.5c0-0.7,0-1.4,0-2l-14,8.1v23.2c-1,0-2,0-3,0.1V59.1L31.1,51c0,0.7,0,1.4,0,2.1c0,11.2,1.2,21.8,3.2,30.3
		c-9.9,1.5-18,4.3-22.5,7.9L88.2,91.2L88.2,91.2z"/>
	<path class="st0" d="M59.9,30.2l-11.7,6.7v7.6l12.9-7.4C60.8,34.7,60.4,32.4,59.9,30.2z"/>
	<path class="st0" d="M61.5,40.3L48.2,48v7.6l13.9-8C62,45.1,61.8,42.7,61.5,40.3z"/>
	<path class="st0" d="M45.2,36.9l-11.8-6.8c-0.5,2.2-0.9,4.5-1.2,6.9l13,7.5V36.9z"/>
	<path class="st0" d="M45.2,55.6V48l-13.4-7.7c-0.3,2.5-0.5,5-0.6,7.6l0.2-0.3L45.2,55.6z"/>
	<path class="st0" d="M45.2,4.6c-4,1.8-8.3,10.6-11.1,22.5l11.1,6.4C45.2,33.5,45.2,4.6,45.2,4.6z"/>
</g>
</svg>
