<?xml version="1.0" encoding="utf-8"?>
<!-- Generator: Adobe Illustrator 24.0.1, SVG Export Plug-In . SVG Version: 6.00 Build 0)  -->
<svg version="1.1" id="Слой_1" xmlns="http://www.w3.org/2000/svg" xmlns:xlink="http://www.w3.org/1999/xlink" x="0px" y="0px"
	 viewBox="0 0 47 48" style="enable-background:new 0 0 47 48;" xml:space="preserve">
<style type="text/css">
	.st0{fill:#FFFFFF;stroke:#FFFFFF;stroke-width:0.5669;stroke-linecap:round;stroke-linejoin:round;stroke-miterlimit:10;}
	
		.st1{fill-rule:evenodd;clip-rule:evenodd;fill:#FFFFFF;stroke:#FFFFFF;stroke-width:0.5669;stroke-linecap:round;stroke-linejoin:round;stroke-miterlimit:10;}
</style>
<g>
	<path class="st0" d="M43.1,34.2h-8.3c-0.3,0-0.5,0.2-0.5,0.5s0.2,0.5,0.5,0.5h8.3c0.3,0,0.5-0.2,0.5-0.5S43.4,34.2,43.1,34.2z"/>
	<path class="st0" d="M43.1,40.4h-9.3c-0.3,0-0.5,0.2-0.5,0.5c0,0.3,0.2,0.5,0.5,0.5h9.3c0.3,0,0.5-0.2,0.5-0.5
		C43.6,40.6,43.4,40.4,43.1,40.4z"/>
	<path class="st0" d="M5.6,37.7h7.5c0.3,0,0.5-0.2,0.5-0.5s-0.2-0.5-0.5-0.5H5.6c-0.3,0-0.5,0.2-0.5,0.5C5.1,37.5,5.3,37.7,5.6,37.7
		z"/>
	<path class="st1" d="M8.9,2.6C9,2.5,9.3,2.5,9.4,2.7l0,0C9.6,2.8,9.6,3,9.5,3.2C9.2,3.8,9.1,4.5,9.1,5.1c0,2.4,1.9,4.3,4.3,4.3
		c0.7,0,1.3-0.2,1.9-0.5c0.2-0.1,0.4-0.1,0.6,0.1C16,9.2,16,9.4,15.9,9.6c-0.9,1.8-2.7,2.9-4.7,2.9c-2.9,0-5.3-2.4-5.3-5.3
		C5.9,5.3,7.1,3.5,8.9,2.6z M14.2,10.3c-0.3,0.1-0.6,0.1-0.9,0.1l0,0c-2.9,0-5.3-2.4-5.3-5.3c0-0.3,0-0.6,0.1-0.9
		C7.4,5,6.9,6.1,6.9,7.3c0,2.4,1.9,4.3,4.3,4.3C12.4,11.6,13.4,11.1,14.2,10.3z"/>
	<path class="st1" d="M43.2,26.4L43.2,26.4c-0.3,0-0.5,0.2-0.5,0.5l0,2.6L24.8,2.9c-0.2-0.3-0.6-0.3-0.8,0L6.1,29.5l0-2.8
		c0-0.3-0.2-0.5-0.5-0.5h0c-0.3,0-0.5,0.2-0.5,0.5l0,4.3c0,0.2,0.1,0.4,0.3,0.5c0,0,0.1,0,0.1,0c0.2,0,0.3-0.1,0.4-0.2l2.8-4.2v3.9
		c0,0.3,0.2,0.5,0.5,0.5h10.7c0.5,1.8,2.2,3.1,4.2,3.1c0,0,0,0,0,0h0c0,0,0,0,0,0c0,0,0,0,0,0l0,0h0c0,0,0,0,0,0c0,0,0,0,0,0l0,0
		c0,0,0,0,0,0c1.9,0,3.5-1.3,4.1-3.1h11c0.3,0,0.5-0.2,0.5-0.5v-3.9l2.8,4.2c0.1,0.2,0.3,0.3,0.5,0.2c0.2-0.1,0.3-0.3,0.3-0.5l0-4.2
		C43.6,26.7,43.4,26.4,43.2,26.4L43.2,26.4z M24.3,33.7L24.3,33.7C24.3,33.7,24.3,33.7,24.3,33.7c-0.9,0-1.6-0.7-1.6-1.5
		c0-0.6,0.8-1.8,1.5-2.8c0.7,1,1.5,2.2,1.5,2.8C25.8,33,25.2,33.7,24.3,33.7L24.3,33.7z M26.8,32.2c0,0.1,0,0.3,0,0.4l0,0
		c0.6-0.6,0.9-1.4,0.9-2.3c0-1.5-2.2-4.5-3.4-6.1c-1.2,1.5-3.4,4.6-3.4,6.1c0,1,0.4,1.8,1,2.4c0-0.2-0.1-0.4-0.1-0.6
		c0-1.2,1.8-3.4,2.1-3.9c0.2-0.2,0.6-0.2,0.7,0C25,28.7,26.8,30.9,26.8,32.2z M24.6,23.1c-0.2-0.2-0.6-0.2-0.7,0
		c-0.4,0.5-4,4.9-4,7.2c0,0.1,0,0.2,0,0.2v0c0,0,0,0.1,0,0.1H15v-3.2c0.6-0.5,2.7-2.3,4.8-4.9c1.7-2.1,3.7-5.2,4.6-8.6
		c0.9,3.4,2.8,6.5,4.6,8.6c2.1,2.6,4.2,4.4,4.8,4.9v3.2h-5.2c0-0.1,0-0.2,0-0.3C28.6,28,25,23.6,24.6,23.1L24.6,23.1z M34.7,30.6H39
		l0-4.9L24.4,4.1L9.8,25.7v4.9h4.3v-3.4c0-0.2,0.1-0.3,0.2-0.4l0,0c0.1-0.1,9.7-7.6,9.7-16.6c0-0.3,0.2-0.5,0.5-0.5
		c0.3,0,0.5,0.2,0.5,0.5c0,8.9,9.5,16.5,9.7,16.6l0,0c0.1,0.1,0.2,0.2,0.2,0.4V30.6z"/>
	<path class="st1" d="M31.7,36.5c0,0.1,0,0.3,0,0.4h0c-0.1,0.1-0.2,0.2-0.3,0.2l-1.8,0.6l1.7,0.5c0.1,0,0.2,0.1,0.3,0.2
		c0.1,0.1,0.1,0.2,0,0.4L31,40.9c-0.1,0.2-0.3,0.3-0.5,0.3c0,0-0.1,0-0.1,0l-6.1-1.7l-5.6,1.9c0,0-0.1,0-0.2,0
		c-0.2,0-0.4-0.1-0.5-0.3l-0.7-2.1c0-0.1,0-0.3,0-0.4c0.1-0.1,0.2-0.2,0.3-0.2l1.5-0.5l-1.8-0.5c-0.1,0-0.2-0.1-0.3-0.2
		c-0.1-0.1-0.1-0.2,0-0.4l0.6-2.1c0.1-0.3,0.3-0.4,0.6-0.3l6.2,1.8l5.9-2c0.3-0.1,0.5,0.1,0.6,0.3L31.7,36.5z M18.5,35.4l-0.3,1.2
		l2.7,0.8l2-0.7L18.5,35.4z M30.6,39l-0.3,1.2L26,38.9l2-0.7L30.6,39z M18.5,39.1l0.4,1.1l11.8-3.9l-0.4-1.1L18.5,39.1z"/>
</g>
</svg>
