<?xml version="1.0" encoding="utf-8"?>
<!-- Generator: Adobe Illustrator 24.0.1, SVG Export Plug-In . SVG Version: 6.00 Build 0)  -->
<svg version="1.1" id="Слой_1" xmlns="http://www.w3.org/2000/svg" xmlns:xlink="http://www.w3.org/1999/xlink" x="0px" y="0px"
	 viewBox="0 0 100 65.7" style="enable-background:new 0 0 100 65.7;" xml:space="preserve">
<style type="text/css">
	.st0{fill:#FFFFFF;}
</style>
<g>
	<path class="st0" d="M97.5,49.1v-5.5c0-3-0.4-5.8-1.3-8.5h0.1l-0.6-1.6c-0.1-0.1-0.1-0.3-0.2-0.4V33l0,0c-1.9-5-5.2-9.4-9.3-12.6
		l0,0l-0.4-0.3l0,0c-5-3.8-11.1-6-17.8-6H57.5V11c8.8-0.2,16.4-0.8,22.6-1.7l4.8,3.6c0.6,0.5,1.3,0.7,2.1,0.7c0.5,0,1.1-0.1,1.6-0.4
		c1.2-0.6,1.9-1.8,1.9-3.1v-3c1.5-0.5,2.7-1,3.7-1.6c0.6-0.3,0.9-1.1,0.7-1.7s-0.8-1.1-1.5-1.1c-7,0.3-12.3,0.4-21,0.4l0,0H59.5
		c-2.3,0-4.8,0-7.4,0c-2.8,0-5.7,0-8.6,0c-13.8,0-29.3-0.2-39.3-2C3.6,1,3,1.3,2.7,1.9S2.5,3.2,2.9,3.6C6,6.7,16.3,8.9,28.5,10.1v4
		H17c-6.9,0-12.5,5.6-12.5,12.5v22.5H3c-1.4,0-2.5,1.1-2.5,2.5v2c0,1.4,1.1,2.5,2.5,2.5h1.5h7.6c0.7,4.5,4.6,8,9.4,8s8.6-3.5,9.4-8
		h34.8c0.7,4.5,4.6,8,9.4,8s8.6-3.5,9.4-8h2.1H97h0.5V56c1.1-0.2,2-1.2,2-2.5v-2C99.5,50.4,98.6,49.4,97.5,49.1z M91.9,32.1H70
		c-0.3,0-0.5-0.2-0.5-0.5v-8c0-0.3,0.2-0.5,0.5-0.5h14.8C87.8,25.5,90.2,28.6,91.9,32.1z M87.5,10.1c0,0.2-0.1,0.4-0.3,0.4
		s-0.4,0.1-0.5,0l-2.5-1.9c1.2-0.2,2.3-0.5,3.3-0.7V10.1z M43.5,6.1c2.9,0,5.8,0,8.6,0c2.6,0,5,0,7.4,0h12.9l0,0c3.5,0,6.4,0,9.1,0
		c-8,1.3-18.9,2-31.5,2C36.3,8.1,24.7,7,16.7,5.5C25.1,6,34.6,6.1,43.5,6.1z M31.5,10.3c6,0.5,12.4,0.7,18.5,0.7c1.5,0,3,0,4.5,0v3
		h-23V10.3z M21.5,61.1c-3.6,0-6.5-2.9-6.5-6.5s2.9-6.5,6.5-6.5S28,51,28,54.6S25.1,61.1,21.5,61.1z M75,61.1
		c-3.6,0-6.5-2.9-6.5-6.5s2.9-6.5,6.5-6.5s6.5,2.9,6.5,6.5S78.6,61.1,75,61.1z M84.4,53.1c-0.7-4.5-4.6-8-9.4-8s-8.6,3.5-9.4,8H30.9
		c-0.7-4.5-4.6-8-9.4-8s-8.6,3.5-9.4,8H8.7H3.5v-1h6v-3h-2v-14h15.1v-3H7.5v-5.5c0-5.2,4.3-9.5,9.5-9.5h51c4.4,0,8.6,1.1,12.2,3H70
		c-1.9,0-3.5,1.6-3.5,3.5v8c0,1.9,1.6,3.5,3.5,3.5h23.1c0.9,2.7,1.4,5.5,1.4,8.5v5.5h-7v3h9v1H92h-5.5H84.4z"/>
	<path class="st0" d="M45.5,31.6v-8c0-1.9-1.6-3.5-3.5-3.5H32c-1.9,0-3.5,1.6-3.5,3.5v8c0,1.9,1.6,3.5,3.5,3.5h10
		C43.9,35.1,45.5,33.5,45.5,31.6z M31.5,31.6v-8c0-0.3,0.2-0.5,0.5-0.5h10c0.3,0,0.5,0.2,0.5,0.5v8c0,0.3-0.2,0.5-0.5,0.5H32
		C31.7,32.1,31.5,31.8,31.5,31.6z"/>
	<path class="st0" d="M61,20.1H51c-1.9,0-3.5,1.6-3.5,3.5v8c0,1.9,1.6,3.5,3.5,3.5h10c1.9,0,3.5-1.6,3.5-3.5v-8
		C64.5,21.6,62.9,20.1,61,20.1z M61.5,31.6c0,0.3-0.2,0.5-0.5,0.5H51c-0.3,0-0.5-0.2-0.5-0.5v-8c0-0.3,0.2-0.5,0.5-0.5h10
		c0.3,0,0.5,0.2,0.5,0.5V31.6z"/>
	<path class="st0" d="M75,50.6c-2.2,0-4,1.8-4,4s1.8,4,4,4s4-1.8,4-4C79,52.4,77.2,50.6,75,50.6z M75,55.6c-0.6,0-1-0.4-1-1
		s0.4-1,1-1s1,0.4,1,1C76,55.1,75.6,55.6,75,55.6z"/>
	<path class="st0" d="M21.5,50.6c-2.2,0-4,1.8-4,4s1.8,4,4,4s4-1.8,4-4C25.5,52.4,23.7,50.6,21.5,50.6z M21.5,55.6c-0.6,0-1-0.4-1-1
		s0.4-1,1-1s1,0.4,1,1C22.5,55.1,22.1,55.6,21.5,55.6z"/>
	<rect x="32.5" y="49.1" class="st0" width="31" height="3"/>
</g>
</svg>
