<?xml version="1.0" encoding="utf-8"?>
<!-- Generator: Adobe Illustrator 24.0.1, SVG Export Plug-In . SVG Version: 6.00 Build 0)  -->
<svg version="1.1" id="Слой_1" xmlns="http://www.w3.org/2000/svg" xmlns:xlink="http://www.w3.org/1999/xlink" x="0px" y="0px"
	 viewBox="0 0 63.5 52.3" style="enable-background:new 0 0 63.5 52.3;" xml:space="preserve">
<style type="text/css">
	.st0{fill:#FFFFFF;}
</style>
<g>
	<path class="st0" d="M58.2,46.5C58.2,46.5,58.2,46.4,58.2,46.5c0-0.1,0.1-0.1,0.1-0.2v-0.1v-0.1c0,0,0,0,0-0.1l0,0v-0.1v-0.1l0,0
		c-0.1-0.2-1.7-5.6-15.2-6.4C48.3,18.2,38.4,6.3,38,5.7c-0.2-0.2-0.4-0.3-0.7-0.3h-0.1c-0.1,0-0.1,0-0.2,0l0,0h-0.1c0,0,0,0-0.1,0
		c0,0-0.1,0-0.1,0.1c0,0,0,0-0.1,0l-0.1,0.1l0,0c-0.6,0.7-10.5,12.7-5.2,34c-4.9,0.5-7.3,1.6-9,2.7c0-0.5-0.2-0.9-0.4-1.2
		c-0.3-0.3-0.6-0.5-1-0.5c-2.5-0.1-4.9,3.1-6.3,5.3c-0.4-1.7-0.5-3.8,0.2-4.9c0.4-0.6,1-0.9,1.9-1c2.4-0.2,3.2-1.1,3.5-1.8
		c0.4-0.9,0.1-1.8-0.6-2.7c-1.1-1.2-3.3-2.2-5.8-1.5c-3.4,0.9-6.4,5-7.3,8.5c-0.7,2.7-0.3,4.9,1.1,6.4c0.4,0.4,0.9,0.4,1.3,0
		s0.4-0.9,0-1.3c-1.3-1.3-1-3.5-0.6-4.7c0.9-3.3,3.6-6.5,6-7.2c1.7-0.5,3.3,0.2,3.9,0.9c0.3,0.3,0.4,0.6,0.3,0.8
		c-0.1,0.3-0.7,0.6-1.9,0.7c-1.5,0.1-2.6,0.7-3.3,1.8c-1.9,2.9-0.1,8,0.1,8.6c0.1,0.3,0.4,0.6,0.8,0.6c0,0,0,0,0.1,0
		c0.3,0,0.7-0.2,0.8-0.5c1.3-2.5,3.7-5.9,5.4-6.3c0,0.5-0.1,1.6-0.2,2.4c-0.3,2-0.4,3.2,0.2,3.9c0.3,0.3,0.6,0.5,1,0.5
		c1.3,0,1.9-0.9,2.4-1.5c0.4-0.6,0.6-0.8,0.9-0.8s0.5,0.2,0.9,0.8c0.5,0.6,1.1,1.5,2.4,1.5s1.9-0.9,2.4-1.5c0.4-0.6,0.6-0.8,0.9-0.8
		s0.5,0.2,0.9,0.8c0.5,0.6,1.1,1.5,2.4,1.5s1.9-0.9,2.4-1.5c0.4-0.6,0.6-0.8,0.9-0.8c0.3,0,0.5,0.2,0.9,0.8c0.5,0.6,1.1,1.5,2.4,1.5
		c1.3,0,1.9-0.9,2.4-1.5c0.4-0.6,0.6-0.8,0.9-0.8s0.5,0.2,0.9,0.8c0.5,0.6,1.1,1.5,2.4,1.5c1.3,0,1.9-0.9,2.4-1.5
		c0.4-0.6,0.6-0.8,0.9-0.8s0.5,0.2,0.9,0.8c0.5,0.6,1.1,1.5,2.4,1.5c1.5,0,1.9-1.2,2.1-1.8c0-0.2,0.1-0.4,0.2-0.5c0,0,0,0,0.1,0
		s0.1,0,0.2,0l0,0c0,0,0,0,0.1,0h0.1h0.1c0,0,0,0,0.1,0c0,0,0.1,0,0.1-0.1c0,0,0,0,0.1-0.1c0,0,0,0,0.1-0.1
		C58.1,46.6,58.1,46.6,58.2,46.5C58.1,46.5,58.1,46.5,58.2,46.5z M40.3,42.2H38v-33C40.6,13.7,45.5,25.2,40.3,42.2z M36.1,9.4v32.9
		h-2.2C28.8,25.5,33.4,14.1,36.1,9.4z M55.3,46.9c0,0.2-0.1,0.4-0.2,0.5c0,0,0,0-0.1,0c-0.3,0-0.5-0.2-0.9-0.8
		c-0.5-0.6-1.1-1.5-2.4-1.5c-1.3,0-1.9,0.9-2.4,1.5c-0.4,0.6-0.6,0.8-0.9,0.8c-0.3,0-0.5-0.2-0.9-0.8c-0.5-0.6-1.1-1.5-2.4-1.5
		c-1.3,0-1.9,0.9-2.4,1.5c-0.4,0.6-0.6,0.8-0.9,0.8c-0.3,0-0.5-0.2-0.9-0.8c-0.5-0.6-1.1-1.5-2.4-1.5s-1.9,0.9-2.4,1.5
		c-0.4,0.6-0.6,0.8-0.9,0.8c-0.3,0-0.5-0.2-0.9-0.8c-0.5-0.6-1.1-1.5-2.4-1.5c-1.3,0-1.9,0.9-2.4,1.5c-0.4,0.6-0.6,0.8-0.9,0.8
		s-0.5-0.2-0.9-0.8c-0.5-0.6-1.1-1.5-2.4-1.5s-1.9,0.9-2.4,1.5c-0.3,0.4-0.4,0.6-0.6,0.7c0-0.5,0.1-1.6,0.2-2.2c0-0.1,0-0.3,0.1-0.4
		c1.6-1.2,3.7-2.7,9.6-3.3c0.2,0.7,0.4,1.4,0.6,2.1c0.1,0.4,0.5,0.6,0.9,0.6H41c0.4,0,0.8-0.3,0.9-0.6c0.2-0.7,0.5-1.5,0.7-2.2
		c9.3,0.5,12.5,3.1,13.5,4.4C55.6,46,55.4,46.6,55.3,46.9z"/>
	<path class="st0" d="M7.3,34.1c-0.1-0.1-1.2-1.4-2.5-1.4c-0.6,0-1.5,0.3-2.2,1.5l-0.8,1.4h6.8L7.3,34.1z"/>
	<path class="st0" d="M6.5,37.5l-0.9-0.1c0,0-1.9-0.2-3.1,1.3c-0.9,1-1.1,2.6-0.8,4.6L2,45l1.2-1.2C3.3,43.7,6,41,6.3,38.5L6.5,37.5
		z M3.5,40.6c0.1-0.3,0.2-0.5,0.4-0.7C4,39.8,4,39.8,4.1,39.7C3.8,40,3.7,40.3,3.5,40.6z"/>
	<path class="st0" d="M10.8,34.1c1,0,1.7-0.8,1.7-1.7s-0.8-1.7-1.7-1.7s-1.7,0.8-1.7,1.7S9.9,34.1,10.8,34.1z M10.8,32.3
		C10.9,32.3,10.9,32.3,10.8,32.3C10.9,32.5,10.7,32.5,10.8,32.3C10.7,32.3,10.8,32.3,10.8,32.3z"/>
</g>
</svg>
